<?xml version="1.0" encoding="UTF-8"?><svg xmlns="http://www.w3.org/2000/svg" xmlns:xlink="http://www.w3.org/1999/xlink" viewBox="0 0 184.33 52.44"><defs><style>.e{fill:#ffec00;stroke:#ffec00;}.e,.f{stroke-miterlimit:10;}.g{fill:#00a03c;}.f{fill:#fff;font-family:BerlinSansFBDemi-Bold, Berlin Sans FB Demi;font-size:24px;stroke:#009540;stroke-width:.5px;}</style><symbol id="a" viewBox="0 0 169.9 30.2"><g><text class="f" transform="translate(.25 25.04)"><tspan x="0" y="0" xml:space="preserve">   LUMISENSE</tspan></text><circle class="e" cx="71" cy="3.7" r="3.2"/></g></symbol></defs><g id="b"/><g id="c"><g id="d"><path class="g" d="M179.05,27.04C164.88,17.51,143.45-.37,125.85,1.78c-11.15,1.41-19.88,9.41-27.74,16.89-3.16,3.15-6.19,6.44-9.17,9.78l-1.32-1.16c2.97-3.39,6-6.72,9.18-9.94,14.35-14.64,28.78-22.94,48.79-13.06,12.19,5.92,22.92,14.33,33.75,22.33l-.3,.4h0Z"/><path class="g" d="M.3,25.42c14.29,9.6,35.39,27.41,53.2,25.26,11.15-1.43,19.88-9.42,27.74-16.9,3.16-3.15,6.19-6.44,9.17-9.78l1.32,1.16c-2.97,3.39-6,6.72-9.18,9.94-14.36,14.64-28.76,22.94-48.78,13.02C21.59,42.18,10.83,33.83,0,25.82l.3-.4h0Z"/><use width="169.9" height="30.2" transform="translate(14.43 10.62)" xlink:href="#a"/></g></g></svg>